# xmcd CD database file
#
# Track frame offsets:
#	150
#	46096
#	52881
#	72989
#	97812
#	136114
#	186280
#	230752
#	259677
#	279444
#	298164
#
# Disc length: 4293 seconds
#
# Revision: 0
# Processed by: cddbd v1.5.2PL0 Copyright (c) Steve Scherf et al.
# Submitted via: CDex 1.51
#
DISCID=9b10c30b
DTITLE=Various Artist - green horns - trompeteria
DYEAR=1900
DGENRE=Jazz
TTITLE0=billies bar
TTITLE1=interlude
TTITLE2=stuff
TTITLE3=turnham green
TTITLE4=stolen scraps
TTITLE5=uxbridge road
TTITLE6=miss gree
TTITLE7=too much, too soon
TTITLE8=mr. green
TTITLE9=my helocentric worldpicture
TTITLE10=water
EXTD=
EXTT0=
EXTT1=
EXTT2=
EXTT3=
EXTT4=
EXTT5=
EXTT6=
EXTT7=
EXTT8=
EXTT9=
EXTT10=
PLAYORDER=
